name ./resultDataOpenSim/trcMotMarkerGrf/sub10/grf-15-02.mot
datacolumns 19
datarows 30
range 1.40400000 1.52000000
endheader

                time	     ground_force_vx	     ground_force_vy	     ground_force_vz	     ground_force_px	     ground_force_py	     ground_force_pz	   l_ground_force_vx	   l_ground_force_vy	   l_ground_force_vz	   l_ground_force_px	   l_ground_force_py	   l_ground_force_pz	     ground_torque_x	     ground_torque_y	     ground_torque_z	   l_ground_torque_x	   l_ground_torque_y	   l_ground_torque_z	
          1.40400000	         -6.67889993	        451.18815576	        -30.74700916	          0.91327868	          0.00000000	          0.02249757	          0.00000000	          0.00000000	          0.00000000	          0.00000000	          0.00000000	          0.00000000	          0.00000000	          3.06105783	          0.00000000	          0.00000000	          0.00000000	          0.00000000	
          1.40800000	         -4.54502770	        450.20967509	        -29.71904271	          0.91395386	          0.00000000	          0.02204062	          0.00000000	          0.00000000	          0.00000000	          0.00000000	          0.00000000	          0.00000000	          0.00000000	          3.07548391	          0.00000000	          0.00000000	          0.00000000	          0.00000000	
          1.41200000	         -2.39623012	        450.09748730	        -29.31027413	          0.91458368	          0.00000000	          0.02165767	          0.00000000	          0.00000000	          0.00000000	          0.00000000	          0.00000000	          0.00000000	          0.00000000	          3.09262861	          0.00000000	          0.00000000	          0.00000000	          0.00000000	
          1.41600000	         -0.22154964	        450.68501179	        -29.52857589	          0.91517251	          0.00000000	          0.02135623	          0.00000000	          0.00000000	          0.00000000	          0.00000000	          0.00000000	          0.00000000	          0.00000000	          3.10346228	          0.00000000	          0.00000000	          0.00000000	          0.00000000	
          1.42000000	          1.97056206	        451.83548613	        -30.32288497	          0.91573658	          0.00000000	          0.02113244	          0.00000000	          0.00000000	          0.00000000	          0.00000000	          0.00000000	          0.00000000	          0.00000000	          3.09885155	          0.00000000	          0.00000000	          0.00000000	          0.00000000	
          1.42400000	          4.14416440	        453.47284587	        -31.58758675	          0.91627661	          0.00000000	          0.02097312	          0.00000000	          0.00000000	          0.00000000	          0.00000000	          0.00000000	          0.00000000	          0.00000000	          3.07224739	          0.00000000	          0.00000000	          0.00000000	          0.00000000	
          1.42800000	          6.24642487	        455.57399284	        -33.17353062	          0.91680483	          0.00000000	          0.02086303	          0.00000000	          0.00000000	          0.00000000	          0.00000000	          0.00000000	          0.00000000	          0.00000000	          3.02216292	          0.00000000	          0.00000000	          0.00000000	          0.00000000	
          1.43200000	          8.23100051	        458.15023128	        -34.90570813	          0.91733047	          0.00000000	          0.02078334	          0.00000000	          0.00000000	          0.00000000	          0.00000000	          0.00000000	          0.00000000	          0.00000000	          2.95304406	          0.00000000	          0.00000000	          0.00000000	          0.00000000	
          1.43600000	         10.08490249	        461.23762756	        -36.60884893	          0.91783457	          0.00000000	          0.02070973	          0.00000000	          0.00000000	          0.00000000	          0.00000000	          0.00000000	          0.00000000	          0.00000000	          2.87398602	          0.00000000	          0.00000000	          0.00000000	          0.00000000	
          1.44000000	         11.85129114	        464.88884594	        -38.13747378	          0.91830595	          0.00000000	          0.02061535	          0.00000000	          0.00000000	          0.00000000	          0.00000000	          0.00000000	          0.00000000	          0.00000000	          2.79595039	          0.00000000	          0.00000000	          0.00000000	          0.00000000	
          1.44400000	         13.63846232	        469.15318961	        -39.40289211	          0.91872318	          0.00000000	          0.02048060	          0.00000000	          0.00000000	          0.00000000	          0.00000000	          0.00000000	          0.00000000	          0.00000000	          2.72887321	          0.00000000	          0.00000000	          0.00000000	          0.00000000	
          1.44800000	         15.60960328	        474.04881372	        -40.38216233	          0.91905575	          0.00000000	          0.02029719	          0.00000000	          0.00000000	          0.00000000	          0.00000000	          0.00000000	          0.00000000	          0.00000000	          2.67990885	          0.00000000	          0.00000000	          0.00000000	          0.00000000	
          1.45200000	         17.95076169	        479.55052915	        -41.10140224	          0.91928327	          0.00000000	          0.02006861	          0.00000000	          0.00000000	          0.00000000	          0.00000000	          0.00000000	          0.00000000	          0.00000000	          2.65319637	          0.00000000	          0.00000000	          0.00000000	          0.00000000	
          1.45600000	         20.82463474	        485.60994887	        -41.61168051	          0.91938290	          0.00000000	          0.01980443	          0.00000000	          0.00000000	          0.00000000	          0.00000000	          0.00000000	          0.00000000	          0.00000000	          2.65059300	          0.00000000	          0.00000000	          0.00000000	          0.00000000	
          1.46000000	         24.32658666	        492.18575667	        -41.97447965	          0.91934925	          0.00000000	          0.01951176	          0.00000000	          0.00000000	          0.00000000	          0.00000000	          0.00000000	          0.00000000	          0.00000000	          2.67245956	          0.00000000	          0.00000000	          0.00000000	          0.00000000	
          1.46400000	         28.45798776	        499.25341985	        -42.25464485	          0.91921599	          0.00000000	          0.01919309	          0.00000000	          0.00000000	          0.00000000	          0.00000000	          0.00000000	          0.00000000	          0.00000000	          2.71794133	          0.00000000	          0.00000000	          0.00000000	          0.00000000	
          1.46800000	         33.12361579	        506.79281686	        -42.51494296	          0.91901841	          0.00000000	          0.01885249	          0.00000000	          0.00000000	          0.00000000	          0.00000000	          0.00000000	          0.00000000	          0.00000000	          2.78484249	          0.00000000	          0.00000000	          0.00000000	          0.00000000	
          1.47200000	         38.14905588	        514.78295087	        -42.80945214	          0.91879050	          0.00000000	          0.01850121	          0.00000000	          0.00000000	          0.00000000	          0.00000000	          0.00000000	          0.00000000	          0.00000000	          2.86959338	          0.00000000	          0.00000000	          0.00000000	          0.00000000	
          1.47600000	         43.31041050	        523.22073436	        -43.17554201	          0.91858101	          0.00000000	          0.01815069	          0.00000000	          0.00000000	          0.00000000	          0.00000000	          0.00000000	          0.00000000	          0.00000000	          2.96767083	          0.00000000	          0.00000000	          0.00000000	          0.00000000	
          1.48000000	         48.37157980	        532.12212396	        -43.62733350	          0.91841553	          0.00000000	          0.01780653	          0.00000000	          0.00000000	          0.00000000	          0.00000000	          0.00000000	          0.00000000	          0.00000000	          3.07436324	          0.00000000	          0.00000000	          0.00000000	          0.00000000	
          1.48400000	         53.12971967	        541.47872915	        -44.15462693	          0.91831950	          0.00000000	          0.01747140	          0.00000000	          0.00000000	          0.00000000	          0.00000000	          0.00000000	          0.00000000	          0.00000000	          3.18544794	          0.00000000	          0.00000000	          0.00000000	          0.00000000	
          1.48800000	         57.45697831	        551.21605711	        -44.72671076	          0.91830752	          0.00000000	          0.01714802	          0.00000000	          0.00000000	          0.00000000	          0.00000000	          0.00000000	          0.00000000	          0.00000000	          3.29741953	          0.00000000	          0.00000000	          0.00000000	          0.00000000	
          1.49200000	         61.31855633	        561.19164233	        -45.29831913	          0.91836369	          0.00000000	          0.01683409	          0.00000000	          0.00000000	          0.00000000	          0.00000000	          0.00000000	          0.00000000	          0.00000000	          3.40727331	          0.00000000	          0.00000000	          0.00000000	          0.00000000	
          1.49600000	         64.76988409	        571.22385161	        -45.81994369	          0.91849300	          0.00000000	          0.01652745	          0.00000000	          0.00000000	          0.00000000	          0.00000000	          0.00000000	          0.00000000	          0.00000000	          3.51217591	          0.00000000	          0.00000000	          0.00000000	          0.00000000	
          1.50000000	         67.94176258	        581.12667496	        -46.25223274	          0.91868275	          0.00000000	          0.01622302	          0.00000000	          0.00000000	          0.00000000	          0.00000000	          0.00000000	          0.00000000	          0.00000000	          3.60937101	          0.00000000	          0.00000000	          0.00000000	          0.00000000	
          1.50400000	         71.01728093	        590.72781205	        -46.57897460	          0.91889343	          0.00000000	          0.01591429	          0.00000000	          0.00000000	          0.00000000	          0.00000000	          0.00000000	          0.00000000	          0.00000000	          3.69642913	          0.00000000	          0.00000000	          0.00000000	          0.00000000	
          1.50800000	         74.19847731	        599.86534934	        -46.81452018	          0.91910241	          0.00000000	          0.01560432	          0.00000000	          0.00000000	          0.00000000	          0.00000000	          0.00000000	          0.00000000	          0.00000000	          3.77166097	          0.00000000	          0.00000000	          0.00000000	          0.00000000	
          1.51200000	         77.65571209	        608.38031802	        -47.00498834	          0.91928759	          0.00000000	          0.01530071	          0.00000000	          0.00000000	          0.00000000	          0.00000000	          0.00000000	          0.00000000	          0.00000000	          3.83435152	          0.00000000	          0.00000000	          0.00000000	          0.00000000	
          1.51600000	         81.48174649	        616.12711210	        -47.22286273	          0.91944005	          0.00000000	          0.01500840	          0.00000000	          0.00000000	          0.00000000	          0.00000000	          0.00000000	          0.00000000	          0.00000000	          3.88458191	          0.00000000	          0.00000000	          0.00000000	          0.00000000	
          1.52000000	         85.67548861	        622.99834128	        -47.55347645	          0.91956686	          0.00000000	          0.01472796	          0.00000000	          0.00000000	          0.00000000	          0.00000000	          0.00000000	          0.00000000	          0.00000000	          3.92270412	          0.00000000	          0.00000000	          0.00000000	          0.00000000	
